<?xml version="1.0" encoding="utf-8"?>
<!-- Generator: Adobe Illustrator 25.0.1, SVG Export Plug-In . SVG Version: 6.00 Build 0)  -->
<svg version="1.0" id="katman_1" xmlns="http://www.w3.org/2000/svg" xmlns:xlink="http://www.w3.org/1999/xlink" x="0px" y="0px"
	 viewBox="0 0 796 536.6" style="enable-background:new 0 0 796 536.6;" xml:space="preserve">
<style type="text/css">
	.st0{fill-rule:evenodd;clip-rule:evenodd;fill:#0077CC;}
	.st1{fill:#1F2122;}
</style>
<path class="st0" d="M458.5,291.5c2-6.3,3.7-12.2,5-17.9c4.8,0.9,9.9,1.6,15.3,2V339h17.8v-80h0v-0.4c-11.7,0-21.7-0.9-30.2-2.5
	c2-20-1.6-34.7-8.9-44.7c-11.5-15.9-31.7-17.7-43.5-7c-12,10.9-11.6,30.7,1.5,45.7c6.8,7.8,16.9,14.4,30.7,19.1
	c-1.1,5-2.6,10.4-4.5,16.2l0,0l-11,32.3L410.9,259h0h-18.8h0l-19.9,58.8L352.4,259h-18.8l27.1,80h23.2l17.7-52.2l17.7,52.2h23.2
	l14.7-43.6l0,0c0.4-1.1,0.8-2.2,1.1-3.3L458.5,291.5L458.5,291.5z M443.2,221.9c3.7,5.1,6.8,14.4,5.8,29.5
	c-9.7-3.7-16.1-8.4-20.1-12.9c-8.6-9.9-5.9-18.3-3-20.9C429.1,214.7,437.2,213.6,443.2,221.9z M499.1,234.2
	c0,6.3-4.9,11.2-11.4,11.2c-6.3,0-11.2-4.9-11.2-11.2c0-6.5,4.9-11.2,11.2-11.2C494.2,223,499.1,227.7,499.1,234.2z M594.7,314.5
	c0,4.6,2.7,7.4,7.3,7.4h1.6V339h-5.1c-14.1,0-21.5-7.1-21.5-20.5v-23.7c0-12.3-7.9-20.5-20.1-20.5c-12.8,0-21.3,8.4-21.3,20.9v44
	h-17.8v-80h17.8v11.2c6.3-8.5,15.6-13.1,27.2-13.1c19.1,0,31.9,12.6,31.9,31.8V314.5z M704.6,321.9c-4.7,0-7.4-2.8-7.4-7.4
	l-0.1-88.8h-17.8v45.2c-6.5-8.8-16.3-14.4-28.2-14.4c-22.8,0-39.7,16.3-39.7,40.3c0,24,16.9,42.2,39.7,42.2c12.3,0,22.6-3.5,29-13
	c2.2,8.8,9.5,13,20.9,13h5v-17.1H704.6z M654.6,321.9c-14.4,0-25-10.9-25-25.1c0-14.2,10.6-23.2,25-23.2c14.2,0,24.7,9,24.7,23.2
	C679.3,311,668.8,321.9,654.6,321.9z"/>
<path class="st1" d="M141.4,275.1V259h-19.6v-21.8H104v15.5c0,4.1-1.7,6.3-5.8,6.3h-8.1v16H104v39.1c0,16,9.3,24.9,26.8,24.9h10.6
	v-16.3h-8.1c-7.4,0-11.5-4.3-11.5-11.4v-36.2H141.4z"/>
<path class="st1" d="M244.2,321.9c-4.7,0-7.4-2.8-7.4-7.4V259H219v14.4c-6.5-8.8-16.3-14.4-28.1-14.4c-22.8,0-39.7,16.3-39.7,40.3
	c0,24,17.1,39.7,39.8,39.7c12.3,0,22.6-6.1,29.1-15.6c2.2,8.8,9.1,15.6,20.5,15.6h5.1v-17.1H244.2z M194.5,321.9
	c-14.4,0-25.2-8.4-25.2-22.6c0-14.2,10.7-23.2,25.1-23.2c14.2,0,24.6,9.2,24.6,23.4S208.7,321.9,194.5,321.9z"/>
<path class="st1" d="M268,245.4c6.5,0,11.4-4.9,11.4-11.2c0-6.5-4.9-11.2-11.4-11.2c-6.3,0-11.2,4.7-11.2,11.2
	C256.7,240.5,261.6,245.4,268,245.4z M259,339h17.8v-80H259V339z"/>
<path class="st1" d="M322.8,339h7.4v-16.3h-4.9c-5.8,0-9.4-3.3-9.4-9.2v-87.9h-17.8v90.9C298.1,331.1,306.7,339,322.8,339z"/>
</svg>
